 
http://www.imdb.com/title/tt0113855/

Source: Mortal Kombat 1995 720p Bluray X264-DIMENSION Thanks!

Subs: Arabic, Brazilian, Bulgarian, Czech, Danish, Dutch, English, Farsi-Persian, French, Greek, Hebrew, Indonesian, Portuguese, Romanian, Slovenian, Spanish, Swedish and Vietnamese.

Sample and Screens included.

General
Complete name                            : Mortal Kombat-720p MP4 AAC x264 BRRip 1995-CC.mp4
Format                                   : MPEG-4
Format profile                           : Base Media
Codec ID                                 : isom
File size                                : 2.79 GiB
Duration                                 : 1h 41mn
Overall bit rate mode                    : Variable
Overall bit rate                         : 3 938 Kbps
Encoded date                             : UTC 2013-02-13 14:46:42

Video
ID                                       : 1
Format                                   : AVC
Format/Info                              : Advanced Video Codec
Format profile                           : High@L4.1
Format settings, CABAC                   : Yes
Format settings, ReFrames                : 5 frames
Codec ID                                 : avc1
Codec ID/Info                            : Advanced Video Coding
Duration                                 : 1h 41mn
Bit rate                                 : 3 598 Kbps
Maximum bit rate                         : 22.0 Mbps
Width                                    : 1 280 pixels
Height                                   : 720 pixels
Display aspect ratio                     : 16:9
Frame rate mode                          : Variable
Frame rate                               : 23.976 fps
Minimum frame rate                       : 19.133 fps
Maximum frame rate                       : 24.390 fps
Color space                              : YUV
Chroma subsampling                       : 4:2:0
Bit depth                                : 8 bits
Scan type                                : Progressive
Bits/(Pixel*Frame)                       : 0.163
Stream size                              : 2.51 GiB (90%)
Writing library                          : x264 core 112

Audio
ID                                       : 2
Format                                   : AAC
Format/Info                              : Advanced Audio Codec
Format profile                           : LC
Codec ID                                 : 40
Duration                                 : 1h 41mn
Bit rate mode                            : Variable
Bit rate                                 : 384 Kbps
Maximum bit rate                         : 602 Kbps
Channel(s)                               : 6 channels
Channel positions                        : Front: L C R, Side: L R, LFE
Sampling rate                            : 48.0 KHz
Compression mode                         : Lossy
Delay relative to video                  : 83ms
Stream size                              : 278 MiB (10%)

Enjoy...

Requested by aartje80

Coming soon: Vertigo, Tropa de Elite, The Red Baron and more...